<?xml version="1.0" encoding="utf-8"?>
<!-- Generator: Adobe Illustrator 24.0.3, SVG Export Plug-In . SVG Version: 6.00 Build 0)  -->
<svg version="1.1" xmlns="http://www.w3.org/2000/svg" xmlns:xlink="http://www.w3.org/1999/xlink" x="0px" y="0px"
	 viewBox="0 0 564.3 100" style="enable-background:new 0 0 564.3 100;" xml:space="preserve">
<style type="text/css">
	.st0{opacity:0.8;}
	.st1{fill:#51E2F5;}
</style>
<g id="Layer_2">
	<g class="st0">
		<g>
			<path class="st1" d="M116.9,41.1c-2.5-1.9-5.6-2.9-9.5-2.9H74.7c-3.8,0-7,1-9.5,2.9c-2.1,1.7-3.6,4-4.4,6.9
				c-1.3,5.2,0.2,11.1,3.4,13.8V100h53.6V61.7L116.9,41.1z"/>
		</g>
	</g>
	<g>
		<path d="M151.3,16.5h29v5.6h-11.7V60h-5.8V22.1h-11.4V16.5z"/>
		<path d="M184.5,38.3c0-3,0.6-5.9,1.7-8.5c1.1-2.7,2.7-5.1,4.8-7.1c2-2.1,4.4-3.7,7.1-4.8c2.7-1.2,5.5-1.7,8.6-1.7
			c3,0,5.9,0.6,8.5,1.7c2.7,1.2,5.1,2.8,7.1,4.8c2.1,2.1,3.7,4.4,4.8,7.1c1.2,2.7,1.7,5.6,1.7,8.6c0,3.1-0.6,5.9-1.7,8.6
			c-1.2,2.7-2.8,5-4.8,7.1c-2,2-4.4,3.6-7.1,4.8c-2.7,1.1-5.6,1.7-8.6,1.7c-3.1,0-6-0.6-8.6-1.7c-2.7-1.1-5-2.7-7.1-4.7
			c-2-2-3.6-4.4-4.8-7C185.1,44.3,184.5,41.4,184.5,38.3z M190.5,38.3c0,2.3,0.4,4.5,1.2,6.5c0.8,2,2,3.7,3.5,5.3
			c1.5,1.5,3.2,2.7,5.2,3.6c1.9,0.9,4.1,1.3,6.4,1.3s4.4-0.4,6.4-1.3c1.9-0.9,3.7-2,5.1-3.6c1.5-1.5,2.6-3.3,3.5-5.3
			c0.8-2,1.3-4.2,1.3-6.4c0-2.3-0.4-4.5-1.3-6.5c-0.8-2-2-3.8-3.5-5.3c-1.5-1.5-3.2-2.7-5.2-3.6c-2-0.9-4.1-1.3-6.4-1.3
			c-2.3,0-4.4,0.4-6.4,1.3c-2,0.9-3.7,2.1-5.2,3.6c-1.5,1.5-2.6,3.3-3.4,5.3C190.9,33.9,190.5,36,190.5,38.3z"/>
		<path d="M233.2,60l19-45.3h0.4l19,45.3h-6.7l-14.2-36.2l4.2-2.7L239,60H233.2z M244.3,43.5h16.2l1.9,5.1h-19.8L244.3,43.5z"/>
		<path d="M302.3,24.2c-1.5-0.8-3.1-1.4-4.9-2c-1.8-0.6-3.5-0.8-5.2-0.8c-2.3,0-4.2,0.5-5.6,1.6c-1.4,1.1-2.1,2.5-2.1,4.3
			c0,1.4,0.5,2.5,1.4,3.5c0.9,0.9,2.1,1.8,3.5,2.4c1.4,0.7,2.9,1.3,4.5,1.9c1.3,0.5,2.6,1.1,4,1.7c1.3,0.7,2.5,1.5,3.6,2.4
			c1.1,1,1.9,2.1,2.5,3.6c0.6,1.4,0.9,3.1,0.9,5.2c0,2.3-0.6,4.4-1.7,6.3c-1.1,1.9-2.8,3.4-4.9,4.5c-2.1,1.1-4.7,1.6-7.6,1.6
			c-1.9,0-3.7-0.2-5.4-0.6c-1.7-0.4-3.4-1-4.8-1.7c-1.5-0.7-2.8-1.5-4-2.2l2.6-4.6c1,0.7,2.1,1.3,3.3,2c1.2,0.6,2.5,1.1,3.9,1.5
			c1.4,0.4,2.7,0.5,4,0.5c1.4,0,2.8-0.2,4.1-0.7c1.3-0.5,2.4-1.2,3.3-2.3c0.9-1,1.3-2.4,1.3-4.2c0-1.4-0.4-2.7-1.2-3.7
			c-0.8-1-1.8-1.9-3.1-2.6c-1.3-0.7-2.6-1.3-4.1-1.9c-1.4-0.5-2.8-1-4.2-1.7c-1.4-0.6-2.7-1.4-3.9-2.3c-1.2-0.9-2.1-2-2.9-3.3
			c-0.7-1.3-1.1-2.9-1.1-4.8c0-2.3,0.6-4.3,1.7-6c1.1-1.7,2.6-3,4.5-4c1.9-1,4.1-1.5,6.6-1.6c2.8,0,5.3,0.3,7.4,1
			c2.1,0.7,4,1.5,5.7,2.5L302.3,24.2z"/>
		<path d="M311.2,16.5h29v5.6h-11.7V60h-5.8V22.1h-11.4V16.5z"/>
		<path d="M380.6,39c-1.1,0-2.2,0.2-3.3,0.7c-1.1,0.4-2,1-2.9,1.8c-0.9,0.8-1.5,1.7-2,2.7c-0.5,1-0.8,2.1-0.8,3.3
			c0,1.6,0.4,2.9,1.2,4.1c0.8,1.2,1.9,2.1,3.3,2.8c1.4,0.7,2.9,1,4.5,1c1.5,0,2.9-0.2,4-0.7c1.2-0.5,2.2-1.1,3-1.9
			c0.8-0.8,1.5-1.6,1.9-2.6l3.7,3.3c-1.1,2-2.8,3.6-5,5c-2.3,1.4-5,2.1-8.3,2.1c-2.7,0-5.2-0.6-7.4-1.7c-2.2-1.1-3.9-2.7-5.2-4.6
			c-1.3-1.9-1.9-4.1-1.9-6.5c0-1.9,0.4-3.7,1.3-5.3c0.9-1.6,2-3,3.4-4.2c1.4-1.2,3-2.1,4.8-2.8c1.8-0.7,3.6-1.1,5.5-1.1L380.6,39z
			 M402.7,60c-0.4,0-0.9,0-1.7,0c-0.7,0-1.5,0-2.3,0c-0.8,0-1.7,0-2.9,0L375,32.4c-0.4-0.6-0.8-1.3-1.3-2.1
			c-0.5-0.8-0.9-1.8-1.2-2.8c-0.3-1-0.5-2.1-0.5-3.2c0-1.7,0.4-3.3,1.2-4.8c0.8-1.5,2-2.7,3.6-3.7c1.6-0.9,3.6-1.4,5.8-1.4
			c2.4,0,4.5,0.5,6.4,1.4c1.9,0.9,3.4,2.1,4.6,3.3l-2.9,3.9c-1.2-1.1-2.5-2-3.6-2.6c-1.2-0.6-2.4-1-3.5-1c-1.8,0-3.1,0.5-4.1,1.6
			c-1,1-1.5,2.3-1.5,3.8c0,0.7,0.2,1.5,0.5,2.2c0.3,0.8,0.6,1.4,0.9,1.9c0.3,0.5,0.5,0.9,0.5,1L402.7,60z M395.7,34.5h5.4l-7,18.1
			l-4.2-2.7L395.7,34.5z"/>
		<path d="M463.1,56.7c-0.7,0.5-1.7,1-3,1.6c-1.2,0.6-2.7,1.1-4.4,1.5c-1.7,0.4-3.5,0.6-5.5,0.6c-3.3,0-6.4-0.6-9.1-1.8
			c-2.7-1.2-5-2.7-6.9-4.8c-1.9-2-3.4-4.3-4.4-7c-1-2.6-1.5-5.4-1.5-8.4c0-3.3,0.5-6.3,1.6-9c1-2.7,2.5-5.1,4.5-7.2
			c1.9-2,4.2-3.6,6.9-4.7c2.6-1.1,5.5-1.7,8.6-1.7c2.6,0,5,0.4,7.1,1.1c2.1,0.7,4,1.5,5.5,2.4l-2.3,5.5c-1.2-0.8-2.7-1.6-4.4-2.3
			c-1.7-0.7-3.6-1.1-5.7-1.1c-2.1,0-4.1,0.4-6,1.3c-1.9,0.8-3.6,2-5,3.6c-1.4,1.5-2.6,3.3-3.4,5.3c-0.8,2-1.2,4.2-1.2,6.6
			c0,2.3,0.4,4.5,1.1,6.5c0.7,2,1.8,3.8,3.2,5.3c1.4,1.5,3.1,2.7,5,3.5c2,0.8,4.2,1.3,6.6,1.3c2.2,0,4.2-0.3,5.9-1
			c1.7-0.7,3.1-1.4,4.3-2.3L463.1,56.7z"/>
		<path d="M470.2,38.3c0-3,0.6-5.9,1.7-8.5c1.1-2.7,2.7-5.1,4.8-7.1c2-2.1,4.4-3.7,7.1-4.8c2.7-1.2,5.5-1.7,8.6-1.7
			c3,0,5.9,0.6,8.5,1.7c2.7,1.2,5.1,2.8,7.1,4.8c2.1,2.1,3.7,4.4,4.8,7.1c1.2,2.7,1.7,5.6,1.7,8.6c0,3.1-0.6,5.9-1.7,8.6
			c-1.2,2.7-2.8,5-4.8,7.1c-2,2-4.4,3.6-7.1,4.8c-2.7,1.1-5.6,1.7-8.6,1.7c-3.1,0-6-0.6-8.6-1.7c-2.7-1.1-5-2.7-7.1-4.7
			c-2-2-3.6-4.4-4.8-7C470.8,44.3,470.2,41.4,470.2,38.3z M476.2,38.3c0,2.3,0.4,4.5,1.2,6.5c0.8,2,2,3.7,3.5,5.3
			c1.5,1.5,3.2,2.7,5.2,3.6c1.9,0.9,4.1,1.3,6.4,1.3s4.4-0.4,6.4-1.3c1.9-0.9,3.7-2,5.1-3.6c1.5-1.5,2.6-3.3,3.5-5.3
			c0.8-2,1.3-4.2,1.3-6.4c0-2.3-0.4-4.5-1.3-6.5c-0.8-2-2-3.8-3.5-5.3c-1.5-1.5-3.2-2.7-5.2-3.6c-2-0.9-4.1-1.3-6.4-1.3
			c-2.3,0-4.4,0.4-6.4,1.3c-2,0.9-3.7,2.1-5.2,3.6c-1.5,1.5-2.6,3.3-3.4,5.3C476.6,33.9,476.2,36,476.2,38.3z"/>
	</g>
	<g>
		<path d="M207.4,91.6c-0.2,0.2-0.5,0.3-0.9,0.5c-0.4,0.2-0.9,0.4-1.4,0.5c-0.5,0.1-1.1,0.2-1.8,0.2c-1.1,0-2-0.2-2.9-0.6
			c-0.9-0.4-1.6-0.9-2.2-1.5c-0.6-0.6-1.1-1.4-1.4-2.2c-0.3-0.8-0.5-1.7-0.5-2.7c0-1,0.2-2,0.5-2.9c0.3-0.9,0.8-1.7,1.4-2.3
			c0.6-0.7,1.4-1.2,2.2-1.5c0.8-0.4,1.8-0.5,2.8-0.5c0.8,0,1.6,0.1,2.3,0.3c0.7,0.2,1.3,0.5,1.8,0.8l-0.8,1.8
			c-0.4-0.3-0.9-0.5-1.4-0.8c-0.6-0.2-1.2-0.3-1.8-0.3c-0.7,0-1.3,0.1-1.9,0.4c-0.6,0.3-1.1,0.7-1.6,1.1c-0.5,0.5-0.8,1.1-1.1,1.7
			c-0.3,0.6-0.4,1.3-0.4,2.1c0,0.7,0.1,1.4,0.4,2.1c0.2,0.7,0.6,1.2,1,1.7s1,0.9,1.6,1.1c0.6,0.3,1.3,0.4,2.1,0.4
			c0.7,0,1.3-0.1,1.9-0.3c0.6-0.2,1-0.5,1.4-0.7L207.4,91.6z"/>
		<path d="M212.2,87.7c0,0.6,0.2,1.2,0.5,1.7c0.3,0.5,0.7,0.9,1.2,1.2c0.5,0.3,1.1,0.4,1.7,0.4c0.7,0,1.2-0.1,1.8-0.4
			c0.5-0.3,0.9-0.7,1.2-1.2c0.3-0.5,0.4-1.1,0.4-1.7v-9h1.9v9.1c0,1-0.2,1.9-0.7,2.7c-0.5,0.8-1.1,1.3-1.9,1.8
			c-0.8,0.4-1.7,0.6-2.7,0.6c-1,0-1.9-0.2-2.7-0.6c-0.8-0.4-1.4-1-1.9-1.8c-0.5-0.8-0.7-1.7-0.7-2.7v-9.1h1.9V87.7z"/>
		<path d="M228.4,78.7c0.7,0,1.4,0.1,2,0.3c0.6,0.2,1.1,0.5,1.6,0.8s0.8,0.8,1,1.4c0.3,0.5,0.4,1.2,0.4,1.9c0,0.6-0.1,1.1-0.2,1.6
			c-0.2,0.5-0.4,1-0.8,1.4c-0.4,0.4-0.9,0.8-1.5,1c-0.6,0.3-1.3,0.4-2.2,0.4h-2.1v5.1h-1.9v-14H228.4z M228.6,85.7
			c0.6,0,1-0.1,1.4-0.3s0.7-0.4,0.9-0.6c0.2-0.3,0.4-0.5,0.4-0.8c0.1-0.3,0.1-0.6,0.1-0.9s0-0.6-0.1-0.9c-0.1-0.3-0.3-0.6-0.5-0.8
			c-0.2-0.3-0.5-0.5-0.8-0.6c-0.3-0.2-0.8-0.3-1.2-0.3h-2.2v5.2H228.6z M230.9,86.8l3.7,5.9h-2.2l-3.7-5.8L230.9,86.8z"/>
		<path d="M236.1,92.7l6.1-14.6h0.1l6.1,14.6h-2.1l-4.6-11.6l1.3-0.9l-5.1,12.5H236.1z M239.6,87.4h5.2l0.6,1.6h-6.4L239.6,87.4z"/>
		<path d="M249,78.7h9.3v1.8h-3.8v12.2h-1.9V80.5H249V78.7z"/>
		<path d="M261.3,78.7h9.1v1.8h-7.2v4.3h6.4v1.8h-6.4v4.3h7.5v1.8h-9.4V78.7z"/>
		<path d="M273.9,92.7v-14h3.8c1.4,0,2.6,0.2,3.5,0.6c1,0.4,1.8,1,2.4,1.7c0.6,0.7,1,1.5,1.3,2.3s0.4,1.7,0.4,2.5
			c0,1.1-0.2,2-0.6,2.8s-0.9,1.6-1.5,2.1c-0.6,0.6-1.4,1-2.2,1.4c-0.8,0.3-1.7,0.5-2.6,0.5H273.9z M275.8,90.9h2.3
			c0.8,0,1.5-0.1,2.1-0.3s1.2-0.6,1.7-1c0.5-0.4,0.9-1,1.1-1.6s0.4-1.4,0.4-2.2c0-0.9-0.1-1.6-0.4-2.3c-0.3-0.7-0.7-1.2-1.2-1.6
			s-1-0.8-1.7-1c-0.6-0.2-1.3-0.3-1.9-0.3h-2.4V90.9z"/>
		<path d="M293.5,78.7h9.3v1.8h-3.8v12.2h-1.9V80.5h-3.7V78.7z"/>
		<path d="M304.2,85.7c0-1,0.2-1.9,0.6-2.7c0.4-0.9,0.9-1.6,1.5-2.3c0.7-0.7,1.4-1.2,2.3-1.6c0.9-0.4,1.8-0.6,2.8-0.6
			c1,0,1.9,0.2,2.7,0.6c0.9,0.4,1.6,0.9,2.3,1.6c0.7,0.7,1.2,1.4,1.6,2.3c0.4,0.9,0.6,1.8,0.6,2.8c0,1-0.2,1.9-0.6,2.8
			c-0.4,0.9-0.9,1.6-1.5,2.3c-0.7,0.7-1.4,1.2-2.3,1.5c-0.9,0.4-1.8,0.6-2.8,0.6c-1,0-1.9-0.2-2.8-0.5c-0.9-0.4-1.6-0.9-2.3-1.5
			c-0.7-0.7-1.2-1.4-1.5-2.3C304.4,87.7,304.2,86.7,304.2,85.7z M306.1,85.7c0,0.7,0.1,1.4,0.4,2.1c0.3,0.6,0.6,1.2,1.1,1.7
			c0.5,0.5,1,0.9,1.7,1.2c0.6,0.3,1.3,0.4,2,0.4c0.7,0,1.4-0.1,2-0.4c0.6-0.3,1.2-0.7,1.6-1.1c0.5-0.5,0.8-1,1.1-1.7
			c0.3-0.6,0.4-1.3,0.4-2.1c0-0.7-0.1-1.4-0.4-2.1c-0.3-0.6-0.6-1.2-1.1-1.7c-0.5-0.5-1-0.9-1.7-1.2c-0.6-0.3-1.3-0.4-2-0.4
			c-0.7,0-1.4,0.1-2.1,0.4s-1.2,0.7-1.7,1.2c-0.5,0.5-0.8,1.1-1.1,1.7C306.3,84.3,306.1,85,306.1,85.7z"/>
		<path d="M319.9,92.7l6.1-14.6h0.1l6.1,14.6H330l-4.6-11.6l1.3-0.9l-5.1,12.5H319.9z M323.4,87.4h5.2l0.6,1.6h-6.4L323.4,87.4z"/>
		<path d="M342.1,81.2c-0.5-0.2-1-0.5-1.6-0.6c-0.6-0.2-1.1-0.3-1.7-0.3c-0.7,0-1.3,0.2-1.8,0.5c-0.4,0.3-0.7,0.8-0.7,1.4
			c0,0.4,0.1,0.8,0.4,1.1c0.3,0.3,0.7,0.6,1.1,0.8c0.5,0.2,0.9,0.4,1.5,0.6c0.4,0.2,0.9,0.3,1.3,0.6c0.4,0.2,0.8,0.5,1.2,0.8
			c0.3,0.3,0.6,0.7,0.8,1.1c0.2,0.5,0.3,1,0.3,1.7c0,0.7-0.2,1.4-0.6,2c-0.4,0.6-0.9,1.1-1.6,1.4c-0.7,0.3-1.5,0.5-2.5,0.5
			c-0.6,0-1.2-0.1-1.8-0.2c-0.6-0.1-1.1-0.3-1.6-0.6c-0.5-0.2-0.9-0.5-1.3-0.7l0.8-1.5c0.3,0.2,0.7,0.4,1.1,0.6
			c0.4,0.2,0.8,0.4,1.3,0.5c0.4,0.1,0.9,0.2,1.3,0.2c0.5,0,0.9-0.1,1.3-0.2c0.4-0.2,0.8-0.4,1.1-0.7s0.4-0.8,0.4-1.3
			c0-0.5-0.1-0.9-0.4-1.2c-0.3-0.3-0.6-0.6-1-0.8c-0.4-0.2-0.8-0.4-1.3-0.6c-0.5-0.2-0.9-0.3-1.3-0.5c-0.4-0.2-0.9-0.5-1.2-0.7
			c-0.4-0.3-0.7-0.6-0.9-1.1c-0.2-0.4-0.4-0.9-0.4-1.5c0-0.7,0.2-1.4,0.5-1.9c0.4-0.5,0.8-1,1.5-1.3c0.6-0.3,1.3-0.5,2.1-0.5
			c0.9,0,1.7,0.1,2.4,0.3c0.7,0.2,1.3,0.5,1.8,0.8L342.1,81.2z"/>
		<path d="M345,78.7h9.3v1.8h-3.8v12.2h-1.9V80.5H345V78.7z"/>
		<path d="M357.2,78.7h9.1v1.8h-7.2v4.3h6.4v1.8h-6.4v4.3h7.5v1.8h-9.4V78.7z"/>
		<path d="M373.6,78.7c0.7,0,1.4,0.1,2,0.3c0.6,0.2,1.1,0.5,1.6,0.8s0.8,0.8,1,1.4c0.3,0.5,0.4,1.2,0.4,1.9c0,0.6-0.1,1.1-0.2,1.6
			c-0.2,0.5-0.4,1-0.8,1.4c-0.4,0.4-0.9,0.8-1.5,1c-0.6,0.3-1.3,0.4-2.2,0.4h-2.1v5.1h-1.9v-14H373.6z M373.8,85.7
			c0.6,0,1-0.1,1.4-0.3s0.7-0.4,0.9-0.6c0.2-0.3,0.4-0.5,0.4-0.8c0.1-0.3,0.1-0.6,0.1-0.9s0-0.6-0.1-0.9c-0.1-0.3-0.3-0.6-0.5-0.8
			c-0.2-0.3-0.5-0.5-0.8-0.6c-0.3-0.2-0.8-0.3-1.2-0.3h-2.2v5.2H373.8z M376.1,86.8l3.7,5.9h-2.2l-3.7-5.8L376.1,86.8z"/>
		<path d="M388.7,78.7h9.1v1.8h-7.2v4.3h6.4v1.8h-6.4v4.3h7.5v1.8h-9.4V78.7z"/>
		<path d="M401.4,92.7v-14h3.8c1.4,0,2.6,0.2,3.5,0.6c1,0.4,1.8,1,2.4,1.7c0.6,0.7,1,1.5,1.3,2.3s0.4,1.7,0.4,2.5
			c0,1.1-0.2,2-0.6,2.8s-0.9,1.6-1.5,2.1c-0.6,0.6-1.4,1-2.2,1.4c-0.8,0.3-1.7,0.5-2.6,0.5H401.4z M403.2,90.9h2.3
			c0.8,0,1.5-0.1,2.1-0.3c0.7-0.2,1.2-0.6,1.7-1s0.9-1,1.1-1.6s0.4-1.4,0.4-2.2c0-0.9-0.1-1.6-0.4-2.3c-0.3-0.7-0.7-1.2-1.2-1.6
			c-0.5-0.4-1-0.8-1.7-1c-0.6-0.2-1.3-0.3-1.9-0.3h-2.4V90.9z"/>
		<path d="M415.9,78.7h1.9v14h-1.9V78.7z"/>
		<path d="M420.8,78.7h9.3v1.8h-3.8v12.2h-1.9V80.5h-3.7V78.7z"/>
		<path d="M431.4,85.7c0-1,0.2-1.9,0.6-2.7c0.4-0.9,0.9-1.6,1.5-2.3c0.7-0.7,1.4-1.2,2.3-1.6c0.9-0.4,1.8-0.6,2.8-0.6
			c1,0,1.9,0.2,2.7,0.6c0.9,0.4,1.6,0.9,2.3,1.6c0.7,0.7,1.2,1.4,1.6,2.3c0.4,0.9,0.6,1.8,0.6,2.8c0,1-0.2,1.9-0.6,2.8
			c-0.4,0.9-0.9,1.6-1.5,2.3c-0.7,0.7-1.4,1.2-2.3,1.5s-1.8,0.6-2.8,0.6c-1,0-1.9-0.2-2.8-0.5c-0.9-0.4-1.6-0.9-2.3-1.5
			c-0.7-0.7-1.2-1.4-1.5-2.3C431.6,87.7,431.4,86.7,431.4,85.7z M433.4,85.7c0,0.7,0.1,1.4,0.4,2.1c0.3,0.6,0.6,1.2,1.1,1.7
			c0.5,0.5,1,0.9,1.7,1.2c0.6,0.3,1.3,0.4,2,0.4s1.4-0.1,2-0.4c0.6-0.3,1.2-0.7,1.6-1.1c0.5-0.5,0.8-1,1.1-1.7
			c0.3-0.6,0.4-1.3,0.4-2.1c0-0.7-0.1-1.4-0.4-2.1c-0.3-0.6-0.6-1.2-1.1-1.7c-0.5-0.5-1-0.9-1.7-1.2c-0.6-0.3-1.3-0.4-2-0.4
			c-0.7,0-1.4,0.1-2.1,0.4s-1.2,0.7-1.7,1.2c-0.5,0.5-0.8,1.1-1.1,1.7C433.5,84.3,433.4,85,433.4,85.7z"/>
		<path d="M452.6,78.7c0.7,0,1.4,0.1,2,0.3c0.6,0.2,1.1,0.5,1.6,0.8s0.8,0.8,1,1.4s0.4,1.2,0.4,1.9c0,0.6-0.1,1.1-0.2,1.6
			c-0.2,0.5-0.4,1-0.8,1.4c-0.4,0.4-0.9,0.8-1.5,1c-0.6,0.3-1.3,0.4-2.2,0.4h-2.1v5.1h-1.9v-14H452.6z M452.8,85.7
			c0.6,0,1-0.1,1.4-0.3s0.7-0.4,0.9-0.6c0.2-0.3,0.4-0.5,0.4-0.8c0.1-0.3,0.1-0.6,0.1-0.9s0-0.6-0.1-0.9c-0.1-0.3-0.3-0.6-0.5-0.8
			c-0.2-0.3-0.5-0.5-0.8-0.6c-0.3-0.2-0.8-0.3-1.2-0.3h-2.2v5.2H452.8z M455.1,86.8l3.7,5.9h-2.2l-3.7-5.8L455.1,86.8z"/>
		<path d="M468.9,81.2c-0.5-0.2-1-0.5-1.6-0.6c-0.6-0.2-1.1-0.3-1.7-0.3c-0.7,0-1.3,0.2-1.8,0.5s-0.7,0.8-0.7,1.4
			c0,0.4,0.1,0.8,0.4,1.1c0.3,0.3,0.7,0.6,1.1,0.8c0.5,0.2,0.9,0.4,1.5,0.6c0.4,0.2,0.9,0.3,1.3,0.6c0.4,0.2,0.8,0.5,1.2,0.8
			c0.3,0.3,0.6,0.7,0.8,1.1c0.2,0.5,0.3,1,0.3,1.7c0,0.7-0.2,1.4-0.6,2c-0.4,0.6-0.9,1.1-1.6,1.4s-1.5,0.5-2.5,0.5
			c-0.6,0-1.2-0.1-1.8-0.2c-0.6-0.1-1.1-0.3-1.6-0.6s-0.9-0.5-1.3-0.7l0.8-1.5c0.3,0.2,0.7,0.4,1.1,0.6c0.4,0.2,0.8,0.4,1.3,0.5
			c0.4,0.1,0.9,0.2,1.3,0.2c0.5,0,0.9-0.1,1.3-0.2s0.8-0.4,1.1-0.7c0.3-0.3,0.4-0.8,0.4-1.3c0-0.5-0.1-0.9-0.4-1.2
			c-0.3-0.3-0.6-0.6-1-0.8c-0.4-0.2-0.8-0.4-1.3-0.6c-0.5-0.2-0.9-0.3-1.3-0.5c-0.4-0.2-0.9-0.5-1.2-0.7c-0.4-0.3-0.7-0.6-0.9-1.1
			c-0.2-0.4-0.4-0.9-0.4-1.5c0-0.7,0.2-1.4,0.5-1.9c0.4-0.5,0.8-1,1.5-1.3c0.6-0.3,1.3-0.5,2.1-0.5c0.9,0,1.7,0.1,2.4,0.3
			c0.7,0.2,1.3,0.5,1.8,0.8L468.9,81.2z"/>
	</g>
</g>
<g id="Layer_1">
	<g>
		<g>
			<path d="M123.4,15.8c-1.2-4.5-3.6-8.4-7.1-11.1c-4-3.1-9.1-4.7-15.3-4.7H48c-6.2,0-11.3,1.6-15.3,4.7c-3.5,2.7-5.9,6.5-7.1,11.1
				c-2.2,8.4,0.4,18,5.5,22.3V100h86.7V38.1C123,33.8,125.5,24.2,123.4,15.8z M116.9,27.6c-0.8,2.9-2.3,5.1-3.9,5.9l-1.7,0.9v59
				H37.7v-59L36,33.5c-1.6-0.9-3-3.1-3.9-5.9c-1-3.2-1-6.9-0.2-10.1c0.8-3.1,2.5-5.8,4.8-7.6c2.8-2.2,6.6-3.3,11.3-3.3h53
				c4.7,0,8.5,1.1,11.3,3.3c2.3,1.8,4,4.4,4.8,7.6C117.9,20.6,117.8,24.3,116.9,27.6z"/>
		</g>
	</g>
</g>
</svg>
